
    <svg width="944" height="167" xmlns="http://www.w3.org/2000/svg" xmlns:xlink="http://www.w3.org/1999/xlink"
        overflow="hidden">
        <defs>
            <clipPath id="clip0">
                <rect x="0" y="0" width="944" height="167" />
            </clipPath>
        </defs>
        <g clip-path="url(#clip0)">
            <path
                d="M357.818 146.538C356.25 146.538 355.28 145.663 354.843 144.263L352.214 135.827C351.723 134.254 352.202 133.554 353.771 133.554L361.967 133.554C363.36 133.554 364.453 134.254 364.941 135.827L367.573 144.263C368.007 145.663 367.409 146.538 366.012 146.538ZM411.779 146.538C410.21 146.538 409.238 145.663 408.802 144.263L406.174 135.827C405.685 134.254 406.163 133.554 407.732 133.554L415.927 133.554C417.322 133.554 418.411 134.254 418.902 135.827L421.533 144.263C421.968 145.663 421.369 146.538 419.973 146.538ZM352.598 129.79C351.028 129.79 350.058 128.917 349.622 127.515L321.546 37.434C321.054 35.8606 321.534 35.1622 323.103 35.1622L331.299 35.1622C332.693 35.1622 333.783 35.8606 334.273 37.434L362.351 127.515C362.789 128.917 362.19 129.79 360.793 129.79ZM296.516 119.47C320.407 119.47 321.134 112.3 311.919 82.7381 302.653 53.0023 297.52 45.4808 274.501 45.4808 267.002 45.4808 258.622 46.0054 249.936 47.2298L272.453 119.47ZM214.15 130.665C182.065 130.665 172.44 121.046 160.445 82.5654 148.397 43.9074 152.022 34.2875 184.108 34.2875 216.369 34.2875 225.995 43.9074 238.043 82.5654 250.036 121.046 246.409 130.665 214.15 130.665ZM210.659 119.47C233.504 119.47 234.701 112.126 225.487 82.5654 216.274 53.0023 210.441 45.4808 187.6 45.4808 164.931 45.4808 163.788 53.0023 173 82.5654 182.215 112.126 187.991 119.47 210.659 119.47ZM157.24 166C153.58 166 152.163 164.251 148.772 159.528L75.5508 54.4012 67.8605 159.528C67.4149 164.251 67.0895 166 63.4256 166L53.6596 166C52.0909 166 51.0022 165.299 50.2821 163.551L0.16178 37.434C-0.328976 35.8606 0.325726 35.1604 1.7218 35.1604L10.6132 35.1604C12.0078 35.1604 12.9247 35.8606 13.5902 37.434L55.1608 143.96 63.6141 41.2827C63.7023 39.8831 64.5303 39.1844 66.0975 39.1844L75.5154 39.1844C77.0841 39.1844 78.3487 39.8831 79.3075 41.2827L151.766 143.96 126.934 37.434C126.617 35.8606 127.096 35.1604 128.491 35.1604L137.384 35.1604C138.781 35.1604 139.87 35.8606 140.361 37.434L168.858 163.551C169.23 165.299 168.575 166 167.005 166ZM283.683 155.503 295.071 155.503C295.834 155.503 296.337 155.886 296.575 156.652L299.129 164.85C299.368 165.616 299.106 165.999 298.342 165.999 291.059 165.999 283.775 166 276.492 166 275.096 166 273.953 165.125 273.516 163.725L234.862 39.7093C234.316 37.9603 234.796 37.2602 236.486 37.0853 251.764 34.6362 258.98 34.2875 271.012 34.2875 303.445 34.2875 312.375 43.9074 324.422 82.5654 336.472 121.22 333.313 130.665 300.006 130.665 290.067 130.665 281.936 130.315 275.616 129.616ZM397.69 155.503 409.078 155.503C409.841 155.503 410.343 155.886 410.581 156.652L413.137 164.85C413.376 165.616 413.112 165.999 412.349 165.999 405.067 165.999 397.783 166 390.5 166 389.103 166 388.014 165.299 387.58 163.899L348.16 37.434C347.67 35.8606 348.324 35.1604 349.719 35.1604L357.914 35.1604C359.309 35.1604 360.4 35.8606 360.891 37.434ZM452.164 166C450.798 166 449.917 164.945 449.538 163.725L438.959 129.79 429.194 129.79C427.625 129.79 426.656 128.917 426.217 127.515L424.31 121.395C423.873 119.995 424.351 119.296 425.923 119.296L435.689 119.296 414.917 52.6523C409.463 35.1604 421.397 34.2875 433.43 34.2875 434.651 34.2875 439.937 34.4599 443.119 35.1604 444.621 35.5116 445.538 36.2107 445.918 37.434L447.773 43.3803C448.264 44.9555 447.73 45.4808 445.987 45.4808L436.743 45.4808C427.502 45.4808 426.01 47.4061 428.463 55.2763L448.419 119.296 467.774 119.296C469.168 119.296 470.26 119.995 470.694 121.395L472.602 127.515C473.039 128.917 472.439 129.79 471.044 129.79L451.689 129.79 462.375 164.075C462.92 165.824 462.334 166 460.36 166ZM550.444 129.79C549.048 129.79 547.902 128.917 547.467 127.515L522.389 47.0546C512.94 45.8294 504.287 45.4808 496.962 45.4808 473.943 45.4808 473.5 53.0023 482.82 82.9133L496.723 127.515C497.161 128.917 496.734 129.79 495.168 129.79L486.97 129.79C485.575 129.79 484.605 128.917 484.171 127.515L470.159 82.5654C458.11 43.9074 461.039 34.2875 493.471 34.2875 502.192 34.2875 509.22 34.4599 518.846 35.685L518.407 34.2875C512.902 16.6186 506.503 11.1965 485.056 11.1965L460.644 11.1965C459.248 11.1965 458.333 10.4992 457.897 9.0971L456.206 3.67714C455.769 2.27536 456.194 1.40033 457.536 1.22728 465.632 0.35298 471.801 0 481.565 0 513.478 0 523.111 9.0971 533.754 42.683L557.635 119.296 571.856 119.296C572.621 119.296 573.121 119.678 573.361 120.446L575.915 128.642C576.154 129.409 575.891 129.79 575.128 129.79 566.899 129.79 558.672 129.79 550.444 129.79ZM406.558 129.79C404.99 129.79 404.019 128.917 403.584 127.515L375.507 37.434C375.016 35.8606 375.495 35.1622 377.063 35.1622L385.26 35.1622C386.653 35.1622 387.747 35.8606 388.234 37.434L416.311 127.515C416.75 128.917 416.15 129.79 414.755 129.79Z"
                fill="#5C5B5B" fill-rule="evenodd" transform="matrix(1 0 0 -1 0 167)" />
            <path
                d="M289.74 130.987C288.057 130.987 286.952 130.147 286.426 128.463L247.322 3.52537C246.742 1.67351 247.322 0.834054 249.003 0.834054L333.34 0.834054C335.023 0.834054 336.128 1.67351 336.656 3.35639L342.286 21.3482C342.811 23.0311 342.235 23.872 340.55 23.872L280.119 23.872 289.538 53.9703 344.753 53.9703C346.439 53.9703 347.709 54.8138 348.237 56.4927L353.606 73.645C354.13 75.3265 353.385 76.1677 351.701 76.1677L296.487 76.1677 306.434 107.95 366.867 107.95C368.55 107.95 369.653 108.79 370.182 110.473L375.813 128.463C376.338 130.147 375.758 130.987 374.077 130.987ZM75.8815 108.957C99.1106 108.957 100.448 98.7009 90.1321 65.7422 79.9208 33.1201 72.219 23.0311 48.9884 23.0311 25.7574 23.0311 24.3702 33.1201 34.5801 65.7422 44.8957 98.7009 52.652 108.957 75.8815 108.957ZM83.0925 131.995C40.1661 131.995 23.8141 116.861 7.81582 65.7422-8.0789 14.9589-1.14903-0.00468367 41.7756-0.00468367 84.7034-0.00468367 101.002 14.9589 116.895 65.7422 122.659 84.157 125.454 97.9007 124.665 107.95L139.976 107.95C141.659 107.95 142.763 108.79 143.29 110.473L148.922 128.463C149.448 130.147 148.869 130.987 147.186 130.987L99.4448 130.987C94.7148 131.678 89.28 131.995 83.0925 131.995ZM241.518 130.987C239.834 130.987 238.729 130.147 238.151 128.296L213.415 49.2636 185.071 125.437C183.473 129.472 183.105 130.987 176.372 130.987L159.707 130.987C158.021 130.987 156.917 130.147 156.338 128.296L117.285 3.52537C116.707 1.67351 117.285 0.834054 118.968 0.834054L140.349 0.834054C142.033 0.834054 143.135 1.67351 143.715 3.52537L169.505 85.9213 199.403 5.03783C200.761 1.84104 202.464 0.834054 206.504 0.834054L222.159 0.834054C223.843 0.834054 224.946 1.67351 225.527 3.52537L258.21 107.95 271.937 107.95C273.62 107.95 274.724 108.79 275.25 110.473L280.883 128.463C281.408 130.147 280.829 130.987 279.148 130.987 266.604 130.987 254.061 130.987 241.518 130.987"
                fill="#00D800" fill-rule="evenodd" transform="matrix(1 0 0 -1 568 132)" />
        </g>
    </svg>
