<svg width="45" height="45" viewBox="0 0 45 45" fill="none" xmlns="http://www.w3.org/2000/svg">
<circle cx="22.5" cy="22.5" r="22" fill="#2B2B41" stroke="#3A3A4E"/>
<path d="M31.2703 26.6695V21.7222C31.268 19.646 30.5775 17.6296 29.3077 15.991C28.0379 14.3524 26.261 13.185 24.2573 12.6728C24.4485 12.2849 24.538 11.8544 24.5174 11.4221C24.4967 10.9898 24.3666 10.57 24.1393 10.2023C23.912 9.83456 23.595 9.53117 23.2184 9.32079C22.8417 9.11041 22.4179 9 21.9869 9C21.5559 9 21.132 9.11041 20.7553 9.32079C20.3787 9.53117 20.0617 9.83456 19.8344 10.2023C19.6071 10.57 19.477 10.9898 19.4563 11.4221C19.4357 11.8544 19.5252 12.2849 19.7164 12.6728C17.7135 13.1864 15.9374 14.3542 14.6679 15.9924C13.3983 17.6307 12.7072 19.6464 12.7034 21.7222V26.6695C12.1338 26.8679 11.6532 27.2638 11.3481 27.7861C11.0431 28.3083 10.9336 28.9227 11.0392 29.5188C11.1448 30.115 11.4587 30.6537 11.9244 31.0382C12.3902 31.4228 12.9772 31.6279 13.58 31.6168H17.8404C18.0374 32.5726 18.5565 33.4309 19.3102 34.0472C20.0639 34.6635 21.0061 35 21.9781 35C22.9501 35 23.8923 34.6635 24.646 34.0472C25.3997 33.4309 25.9188 32.5726 26.1158 31.6168H30.42C31.0228 31.6279 31.6098 31.4228 32.0756 31.0382C32.5413 30.6537 32.8552 30.115 32.9608 29.5188C33.0664 28.9227 32.9569 28.3083 32.6519 27.7861C32.3468 27.2638 31.8663 26.8679 31.2966 26.6695H31.2703ZM21.9869 10.6921C22.1602 10.6921 22.3297 10.7437 22.4739 10.8404C22.6181 10.9372 22.7304 11.0747 22.7967 11.2355C22.8631 11.3964 22.8805 11.5734 22.8466 11.7441C22.8128 11.9149 22.7293 12.0717 22.6067 12.1948C22.4841 12.318 22.3279 12.4018 22.1579 12.4358C21.9878 12.4697 21.8116 12.4523 21.6514 12.3857C21.4912 12.319 21.3543 12.2062 21.258 12.0615C21.1616 11.9167 21.1102 11.7465 21.1102 11.5724C21.1126 11.3405 21.2059 11.1188 21.3701 10.9556C21.5342 10.7924 21.7559 10.7009 21.9869 10.7009V10.6921ZM21.9869 33.307C21.463 33.3072 20.952 33.1438 20.5248 32.8393C20.0976 32.5349 19.7752 32.1046 19.6024 31.608H24.3713C24.1988 32.1055 23.8768 32.537 23.4497 32.8429C23.0226 33.1488 22.5115 33.314 21.9869 33.3158V33.307ZM30.4287 29.9178H13.545C13.415 29.9533 13.2785 29.9582 13.1463 29.9322C13.0141 29.9061 12.8897 29.8498 12.7827 29.7677C12.6756 29.6855 12.5889 29.5797 12.5292 29.4584C12.4695 29.3371 12.4384 29.2036 12.4384 29.0683C12.4384 28.933 12.4695 28.7996 12.5292 28.6783C12.5889 28.557 12.6756 28.4512 12.7827 28.369C12.8897 28.2868 13.0141 28.2305 13.1463 28.2045C13.2785 28.1785 13.415 28.1834 13.545 28.2188H15.2106C15.3412 28.2571 15.4789 28.2643 15.6128 28.2399C15.7467 28.2154 15.8731 28.16 15.982 28.078C16.0909 27.996 16.1792 27.8897 16.2401 27.7674C16.301 27.6452 16.3326 27.5104 16.3326 27.3737C16.3326 27.2371 16.301 27.1023 16.2401 26.9801C16.1792 26.8578 16.0909 26.7515 15.982 26.6695C15.8731 26.5875 15.7467 26.5321 15.6128 26.5076C15.4789 26.4832 15.3412 26.4904 15.2106 26.5287H14.3339V21.7222C14.3339 19.6981 15.1347 17.7568 16.56 16.3255C17.9854 14.8941 19.9185 14.09 21.9343 14.09C23.95 14.09 25.8832 14.8941 27.3085 16.3255C28.7338 17.7568 29.5346 19.6981 29.5346 21.7222V26.5287H28.658C28.4759 26.582 28.3159 26.6932 28.2021 26.8456C28.0883 26.998 28.0268 27.1833 28.0268 27.3737C28.0268 27.5642 28.0883 27.7495 28.2021 27.9019C28.3159 28.0543 28.4759 28.1655 28.658 28.2188H30.3498C30.5355 28.2695 30.6995 28.3801 30.8164 28.5337C30.9332 28.6872 30.9966 28.8751 30.9966 29.0683C30.9966 29.2616 30.9332 29.4494 30.8164 29.603C30.6995 29.7565 30.5355 29.8671 30.3498 29.9178H30.4287ZM21.9869 15.7802C20.419 15.7826 18.9162 16.4096 17.8084 17.5237C16.7006 18.6378 16.0784 20.1478 16.0784 21.7222C16.0403 21.8534 16.0331 21.9917 16.0575 22.1262C16.0818 22.2607 16.137 22.3876 16.2187 22.4969C16.3003 22.6062 16.4062 22.6949 16.5279 22.7561C16.6497 22.8172 16.7839 22.849 16.92 22.849C17.0561 22.849 17.1903 22.8172 17.312 22.7561C17.4337 22.6949 17.5396 22.6062 17.6213 22.4969C17.7029 22.3876 17.7581 22.2607 17.7825 22.1262C17.8068 21.9917 17.7996 21.8534 17.7615 21.7222C17.7615 20.5969 18.2067 19.5177 18.9991 18.7219C19.7915 17.9262 20.8662 17.4792 21.9869 17.4792C22.1726 17.4285 22.3365 17.3179 22.4534 17.1644C22.5703 17.0108 22.6336 16.823 22.6336 16.6297C22.6336 16.4365 22.5703 16.2486 22.4534 16.095C22.3365 15.9415 22.1726 15.8309 21.9869 15.7802Z" fill="white"/>
</svg>
