<svg width="50" height="50" viewBox="0 0 50 50" fill="none" xmlns="http://www.w3.org/2000/svg">
<circle cx="25" cy="25" r="25" fill="#5526DD"/>
<path fill-rule="evenodd" clip-rule="evenodd" d="M35.5917 35.6C35.4381 35.7405 35.2374 35.8185 35.0292 35.8185C34.8209 35.8185 34.6203 35.7405 34.4667 35.6L29.225 30.35C27.4233 31.8506 25.1119 32.5978 22.7727 32.4359C20.4335 32.274 18.247 31.2153 16.6693 29.4807C15.0916 27.7461 14.2443 25.4695 14.3041 23.1254C14.3639 20.7814 15.3263 18.5509 16.9904 16.8991C18.6546 15.2472 20.8922 14.3015 23.2366 14.2591C25.581 14.2167 27.8513 15.0809 29.5741 16.6715C31.2969 18.2621 32.3393 20.4563 32.4838 22.7966C32.6284 25.137 31.864 27.4428 30.35 29.2333L35.5917 34.475C35.7322 34.6286 35.8102 34.8293 35.8102 35.0375C35.8102 35.2457 35.7322 35.4464 35.5917 35.6ZM30.8333 23.3333C30.8333 21.85 30.3935 20.3999 29.5694 19.1665C28.7453 17.9332 27.5739 16.9719 26.2035 16.4042C24.833 15.8365 23.325 15.688 21.8702 15.9774C20.4153 16.2668 19.0789 16.9811 18.03 18.03C16.9811 19.0789 16.2668 20.4153 15.9774 21.8701C15.6881 23.325 15.8366 24.833 16.4042 26.2034C16.9719 27.5739 17.9332 28.7452 19.1666 29.5693C20.3999 30.3934 21.85 30.8333 23.3333 30.8333C25.3224 30.8333 27.2301 30.0431 28.6366 28.6366C30.0432 27.2301 30.8333 25.3224 30.8333 23.3333Z" fill="white"/>
</svg>
