<svg width="45" height="45" viewBox="0 0 45 45" fill="none" xmlns="http://www.w3.org/2000/svg">
<circle cx="22.5" cy="22.5" r="22" fill="#2B2B41" stroke="#3A3A4E"/>
<path d="M34.8406 20.5985C34.8108 20.4096 34.7304 20.2322 34.6078 20.0851C34.4853 19.938 34.3251 19.8266 34.1442 19.7626L32.1728 19.0605C32.0553 18.7262 31.9211 18.4086 31.7785 18.0993L32.6761 16.2103C32.7583 16.0349 32.7915 15.8406 32.7723 15.6479C32.7531 15.4553 32.6823 15.2713 32.5671 15.1154C31.8137 14.0932 30.9085 13.1912 29.8825 12.4407C29.7277 12.3258 29.5444 12.255 29.3523 12.2359C29.1602 12.2168 28.9665 12.25 28.7919 12.332L26.9211 13.218C26.6107 13.0759 26.2919 12.9422 25.9647 12.8252L25.26 10.8526C25.1959 10.6724 25.084 10.5128 24.9364 10.3907C24.7887 10.2686 24.6107 10.1885 24.4211 10.1588C23.1665 9.94144 21.8837 9.94144 20.6292 10.1588C20.4392 10.1876 20.2608 10.2674 20.113 10.3896C19.9652 10.5119 19.8536 10.6719 19.7902 10.8526L19.0855 12.8252C18.7584 12.9422 18.4395 13.0759 18.1291 13.218L16.2416 12.3237C16.0655 12.2418 15.8705 12.2087 15.6771 12.2278C15.4837 12.2469 15.2991 12.3176 15.1426 12.4323C14.1211 13.1853 13.219 14.0869 12.4664 15.107C12.3512 15.2629 12.2803 15.4469 12.2611 15.6396C12.242 15.8322 12.2752 16.0265 12.3574 16.2019L13.255 18.0909C13.1124 18.4002 12.9781 18.7262 12.8607 19.0522L10.8892 19.7543C10.7093 19.8197 10.55 19.9316 10.4277 20.0784C10.3054 20.2253 10.2243 20.4019 10.1929 20.5901C9.98046 21.8462 9.98046 23.1288 10.1929 24.3848C10.2218 24.574 10.3019 24.7518 10.4246 24.8991C10.5472 25.0464 10.7079 25.1575 10.8892 25.2207L12.8607 25.9228C12.9781 26.2571 13.1124 26.5747 13.255 26.884L12.3574 28.773C12.2752 28.9484 12.242 29.1427 12.2611 29.3354C12.2803 29.528 12.3512 29.712 12.4664 29.8679C13.2211 30.8886 14.1228 31.7927 15.1426 32.551C15.2999 32.6644 15.4849 32.7335 15.6783 32.7512C15.8716 32.7688 16.0662 32.7344 16.2416 32.6513L18.1291 31.757C18.4395 31.899 18.7584 32.0328 19.0855 32.1498L19.7902 34.1224C19.8536 34.303 19.9652 34.4631 20.113 34.5853C20.2608 34.7075 20.4392 34.7874 20.6292 34.8161C21.8842 35.0278 23.166 35.0278 24.4211 34.8161C24.6107 34.7865 24.7887 34.7064 24.9364 34.5843C25.084 34.4622 25.1959 34.3026 25.26 34.1224L25.9647 32.1498C26.2919 32.0328 26.6107 31.899 26.9211 31.757L28.8087 32.6513C28.983 32.7328 29.1759 32.7664 29.3677 32.7487C29.5594 32.7311 29.7429 32.6628 29.8993 32.551C30.9235 31.7951 31.8284 30.8908 32.5839 29.8679C32.699 29.712 32.7699 29.528 32.7891 29.3354C32.8083 29.1427 32.7751 28.9484 32.6929 28.773L31.7785 26.8924C31.9211 26.5831 32.0553 26.2655 32.1728 25.9311L34.1442 25.229C34.3256 25.1659 34.4862 25.0547 34.6089 24.9075C34.7316 24.7602 34.8117 24.5824 34.8406 24.3932C35.053 23.1371 35.053 21.8545 34.8406 20.5985ZM32.802 23.4403L30.9563 24.1006C30.7972 24.1573 30.6536 24.2504 30.5371 24.3723C30.4205 24.4942 30.3343 24.6416 30.2852 24.8027C30.1305 25.3493 29.9138 25.8765 29.6392 26.3741C29.5645 26.5249 29.5256 26.6908 29.5256 26.8589C29.5256 27.0271 29.5645 27.1929 29.6392 27.3437L30.4781 29.1073C30.0737 29.5939 29.6243 30.0417 29.1359 30.4447L27.3741 29.6088C27.2228 29.5344 27.0563 29.4957 26.8875 29.4957C26.7188 29.4957 26.5523 29.5344 26.401 29.6088C25.9038 29.8831 25.3776 30.1017 24.8322 30.2608C24.6699 30.3085 24.5213 30.394 24.3987 30.5103C24.2762 30.6266 24.1832 30.7702 24.1275 30.9295L23.4731 32.7767C22.8429 32.8436 22.2074 32.8436 21.5771 32.7767L20.9228 30.9295C20.8671 30.7702 20.7741 30.6266 20.6515 30.5103C20.529 30.394 20.3804 30.3085 20.2181 30.2608C19.6705 30.1002 19.1418 29.8816 18.6409 29.6088C18.491 29.5345 18.3259 29.4958 18.1585 29.4958C17.9911 29.4958 17.826 29.5345 17.6761 29.6088L15.906 30.4447C15.4221 30.0365 14.9757 29.5861 14.5721 29.099L15.411 27.3353C15.4877 27.1852 15.5276 27.0191 15.5276 26.8506C15.5276 26.6821 15.4877 26.516 15.411 26.3658C15.1435 25.8648 14.9271 25.3384 14.7651 24.7944C14.7193 24.6329 14.6352 24.4848 14.5198 24.3626C14.4044 24.2404 14.2612 24.1477 14.1023 24.0923L12.2567 23.432C12.1784 22.8047 12.1784 22.1702 12.2567 21.543L14.1023 20.8827C14.2612 20.8272 14.4044 20.7345 14.5198 20.6123C14.6352 20.4901 14.7193 20.342 14.7651 20.1806C14.9271 19.6366 15.1435 19.1101 15.411 18.6092C15.4877 18.459 15.5276 18.2929 15.5276 18.1244C15.5276 17.9559 15.4877 17.7898 15.411 17.6396L14.5721 15.876C14.9759 15.3915 15.4223 14.9439 15.906 14.5386L17.6761 15.3745C17.8269 15.4508 17.9936 15.4906 18.1627 15.4906C18.3318 15.4906 18.4985 15.4508 18.6493 15.3745C19.1465 15.1002 19.6726 14.8816 20.2181 14.7225C20.3804 14.6748 20.529 14.5893 20.6515 14.473C20.7741 14.3567 20.8671 14.2131 20.9228 14.0538L21.5771 12.2066C22.2074 12.1397 22.8429 12.1397 23.4731 12.2066L24.1275 14.0538C24.1832 14.2131 24.2762 14.3567 24.3987 14.473C24.5213 14.5893 24.6699 14.6748 24.8322 14.7225C25.3776 14.8816 25.9038 15.1002 26.401 15.3745C26.5517 15.4508 26.7184 15.4906 26.8875 15.4906C27.0566 15.4906 27.2234 15.4508 27.3741 15.3745L29.1359 14.5386C29.6243 14.9416 30.0737 15.3894 30.4781 15.876L29.6392 17.6396C29.5645 17.7904 29.5256 17.9562 29.5256 18.1244C29.5256 18.2925 29.5645 18.4584 29.6392 18.6092C29.9126 19.1151 30.1266 19.6508 30.2768 20.2056C30.3259 20.3667 30.4122 20.5141 30.5287 20.6361C30.6452 20.758 30.7888 20.851 30.9479 20.9077L32.7936 21.568C32.8607 22.1959 32.8607 22.8292 32.7936 23.4571L32.802 23.4403ZM22.5 17.2885C21.5153 17.2852 20.5518 17.5731 19.7315 18.1157C18.9112 18.6583 18.271 19.4313 17.8919 20.3367C17.5128 21.2421 17.4118 22.2392 17.6019 23.2017C17.792 24.1643 18.2644 25.0491 18.9595 25.7439C19.6546 26.4388 20.541 26.9125 21.5065 27.1051C22.4719 27.2977 23.4731 27.2006 24.3831 26.8259C25.2931 26.4513 26.071 25.816 26.6184 25.0005C27.1658 24.1851 27.458 23.2261 27.458 22.2451C27.458 20.9334 26.9362 19.6752 26.0069 18.7462C25.0775 17.8171 23.8165 17.293 22.5 17.2885ZM22.5 25.0619C21.9404 25.0635 21.393 24.8997 20.927 24.5912C20.461 24.2827 20.0973 23.8434 19.882 23.3288C19.6667 22.8143 19.6096 22.2476 19.7177 21.7007C19.8258 21.1537 20.0944 20.6511 20.4895 20.2563C20.8845 19.8615 21.3883 19.5924 21.9369 19.483C22.4856 19.3737 23.0545 19.429 23.5715 19.6419C24.0886 19.8549 24.5307 20.2159 24.8417 20.6793C25.1527 21.1427 25.3187 21.6876 25.3187 22.2451C25.3188 22.9907 25.022 23.7059 24.4936 24.2339C23.9653 24.7619 23.2483 25.0596 22.5 25.0619Z" fill="white"/>
</svg>
